<svg version="1.1" id="Layer_1" xmlns="http://www.w3.org/2000/svg" xmlns:xlink="http://www.w3.org/1999/xlink" x="0px" y="0px"
	 width="100%" viewBox="0 0 500 500" enable-background="new 0 0 500 500" xml:space="preserve">
<path fill="#FFFFFF" opacity="1.000000" stroke="none" 
	d="
M279.000000,501.000000 
	C187.333359,501.000000 96.166679,500.975372 5.000192,501.095764 
	C1.576128,501.100281 0.903036,500.423828 0.905301,497.000000 
	C1.013778,333.000092 1.013756,169.000122 0.905337,5.000247 
	C0.903074,1.576947 1.575793,0.903021 4.999876,0.905286 
	C168.999756,1.013775 332.999725,1.013761 496.999634,0.905353 
	C500.422668,0.903090 501.096985,1.575429 501.094727,4.999757 
	C500.986206,168.999634 500.986237,332.999603 501.094604,496.999512 
	C501.096893,500.422272 500.425659,501.102386 497.000244,501.096375 
	C424.500336,500.969055 352.000153,501.000000 279.000000,501.000000 
z"/>
<path fill="#7DFCA3" opacity="1.000000" stroke="none" 
	d="
M160.167236,378.243683 
	C145.692871,373.149658 141.989258,366.830292 144.850906,352.297180 
	C157.395401,288.589020 171.175446,225.138977 184.748047,161.645874 
	C188.739532,142.973526 192.580368,124.261391 197.034119,105.697968 
	C200.385529,91.729004 210.737549,83.352142 225.082718,83.186729 
	C255.378845,82.837395 285.681396,82.955963 315.980835,83.050354 
	C323.105316,83.072540 325.673370,87.226608 324.640106,96.463425 
	C325.560791,99.251358 324.591919,101.502739 324.185913,103.759460 
	C323.095520,109.820023 321.614410,115.800598 320.362457,121.829285 
	C318.393646,131.310364 313.766296,135.239716 304.089325,135.364853 
	C289.612762,135.552032 275.133118,135.398666 260.654816,135.426880 
	C253.426529,135.440964 253.321442,135.579788 251.821655,142.613495 
	C239.259811,201.526291 226.719055,260.443604 214.149704,319.354797 
	C213.051300,324.502930 213.009445,324.493988 220.375275,326.782257 
	C235.565445,327.129913 250.453842,327.103241 265.340271,327.260590 
	C274.092377,327.353088 277.624329,331.810394 276.054932,340.718872 
	C276.769714,342.534882 276.588470,344.037933 276.311646,345.503693 
	C274.893372,353.012665 273.665558,360.570709 271.697113,367.955750 
	C269.487732,376.244934 265.193970,379.490906 256.578857,379.510651 
	C226.506577,379.579620 196.434097,379.548126 166.361725,379.522583 
	C164.381149,379.520905 162.350876,379.655762 160.167236,378.243683 
z"/>
<path fill="#9E3FE1" opacity="1.000000" stroke="none" 
	d="
M220.752075,326.667786 
	C210.863617,327.873016 210.875565,327.875549 212.899384,318.354401 
	C225.646774,258.384277 238.404907,198.416428 251.086304,138.432358 
	C251.765259,135.220901 252.831024,133.822678 256.550873,133.887222 
	C272.200256,134.158783 287.857056,134.014374 303.511139,133.997314 
	C313.144867,133.986816 317.046387,130.722687 318.996094,121.347786 
	C320.653656,113.377693 322.445068,105.435455 324.388824,97.191071 
	C331.863525,97.265793 333.377777,99.132614 331.892059,106.251068 
	C329.989807,115.365158 328.008026,124.463249 325.980713,133.550415 
	C324.789368,138.890274 322.011597,141.122070 316.483093,141.135971 
	C299.326263,141.179108 282.167725,141.275543 265.013641,141.054901 
	C261.302582,141.007156 259.847412,142.145706 259.094757,145.714432 
	C247.806107,199.237518 236.398163,252.735428 225.024429,306.240570 
	C223.606979,312.908661 222.224762,319.584229 220.752075,326.667786 
z"/>
<path fill="#9F45E0" opacity="1.000000" stroke="none" 
	d="
M159.882843,378.316162 
	C191.935776,378.025940 224.097397,377.901215 256.254211,378.236145 
	C264.900848,378.326233 269.374512,373.503174 270.882263,365.730408 
	C272.432220,357.740021 274.124054,349.777161 275.910217,341.452911 
	C282.808868,341.380035 284.780060,343.745911 283.501923,350.161346 
	C281.718170,359.114868 279.923065,368.066559 278.049255,377.001526 
	C276.777496,383.065765 273.477905,385.851959 267.275116,385.862000 
	C236.516876,385.911713 205.758286,385.947083 175.000427,385.827515 
	C169.030853,385.804321 163.428253,384.313385 159.882843,378.316162 
z"/>
<path fill="#9D3CE1" opacity="1.000000" stroke="none" 
	d="
M316.896118,96.734222 
	C315.451660,105.665924 313.763916,114.301926 311.914001,122.903061 
	C311.076294,126.797951 308.049377,127.359787 304.600922,127.348595 
	C287.120605,127.291855 269.637909,127.467674 252.160980,127.218239 
	C247.954559,127.158211 246.567444,128.488007 245.712418,132.550293 
	C231.854767,198.388016 217.847229,264.194366 203.705536,329.971710 
	C202.915680,333.645538 203.849075,334.225922 207.080444,334.054443 
	C210.732025,333.860718 214.402847,334.030212 218.528320,334.103455 
	C219.803940,338.936310 222.982880,339.631348 227.232452,339.550079 
	C238.649567,339.331573 250.073792,339.453308 261.495026,339.492523 
	C263.788422,339.500366 266.157928,339.213074 268.574432,340.869751 
	C267.257507,349.666138 265.613831,358.145325 263.987427,366.627838 
	C263.144989,371.021484 260.016693,371.880219 256.176422,371.868591 
	C243.512878,371.830322 230.849152,371.855499 218.185501,371.855774 
	C202.022675,371.856079 185.859680,371.816650 169.697144,371.884460 
	C165.842514,371.900665 162.060730,371.627228 158.032181,370.340240 
	C155.584885,366.356812 156.905014,362.576538 157.677628,358.881470 
	C164.052887,328.391541 170.450439,297.906067 176.960098,267.444550 
	C187.159851,219.715622 197.194122,171.951279 207.566666,124.259254 
	C208.062515,121.979431 208.554504,119.700531 209.212036,117.460922 
	C213.379135,103.267372 222.418564,95.876015 237.253845,95.668892 
	C262.238739,95.320053 287.230316,95.548500 312.219086,95.584213 
	C313.719666,95.586357 315.224182,95.660416 316.896118,96.734222 
z"/>
<path fill="#FCFDFE" opacity="1.000000" stroke="none" 
	d="
M317.448425,96.722664 
	C290.891205,97.030769 264.576691,96.970184 238.262405,97.021973 
	C222.832016,97.052345 213.253876,104.668823 209.981262,119.883430 
	C197.260330,179.023788 184.656097,238.189270 172.049408,297.354126 
	C167.408112,319.136322 162.862274,340.938904 158.329605,362.743988 
	C157.893661,364.841248 157.861374,367.022430 157.681564,369.620911 
	C152.131073,367.846588 149.371689,362.882202 150.649307,356.565216 
	C156.045059,329.886993 161.428131,303.205200 167.041290,276.572205 
	C178.610306,221.680252 190.284622,166.810349 202.012192,111.952026 
	C204.209061,101.675728 208.803665,93.037575 220.147736,90.477768 
	C223.346756,89.755905 226.758392,89.800537 230.073044,89.794548 
	C257.541534,89.744865 285.010162,89.760620 312.478729,89.769440 
	C318.694397,89.771431 318.694397,89.794533 317.448425,96.722664 
z"/>
<path fill="#FEFFFF" opacity="1.000000" stroke="none" 
	d="
M269.009705,340.799438 
	C253.838287,341.169128 238.782578,341.152557 223.726852,341.136322 
	C217.426575,341.129517 217.426575,341.129852 218.956085,334.559204 
	C234.087875,334.113312 249.184372,334.043427 264.280945,334.018738 
	C270.165985,334.009125 270.586945,334.611816 269.009705,340.799438 
z"/>
</svg>